<?xml version="1.0" standalone="no"?>
<!DOCTYPE svg PUBLIC "-//W3C//DTD SVG 20010904//EN"
 "http://www.w3.org/TR/2001/REC-SVG-20010904/DTD/svg10.dtd">
<svg version="1.0" xmlns="http://www.w3.org/2000/svg"
 width="512.000000pt" height="512.000000pt" viewBox="0 0 512.000000 512.000000"
 preserveAspectRatio="xMidYMid meet">

<g transform="translate(0.000000,512.000000) scale(0.100000,-0.100000)"
fill="#000000" stroke="none">

<path d="M2022 3219 c-46 -14 -109 -80 -122 -128 -7 -27 -10 -296 -8 -855 l3
-814 30 -43 c81 -114 249 -114 330 0 l30 43 0 836 0 837 -24 38 c-47 76 -151
113 -239 86z"/>
<path d="M2962 3219 c-46 -14 -109 -80 -122 -128 -7 -28 -10 -222 -8 -605 l3
-564 30 -43 c81 -114 249 -114 330 0 l30 43 0 586 0 587 -24 38 c-47 76 -151
113 -239 86z"/>
<path d="M1069 2607 c-24 -13 -57 -43 -74 -66 l-30 -43 -3 -986 c-2 -685 1
-1007 8 -1052 18 -107 71 -203 159 -290 88 -87 148 -123 257 -150 137 -35 270
-20 395 46 55 29 113 78 267 225 l197 188 392 117 c216 64 403 122 417 129 39
20 826 655 879 708 94 97 166 225 203 362 17 61 19 109 19 387 l0 316 -30 43
c-83 117 -247 117 -330 0 l-30 -43 -5 -301 -5 -302 -31 -65 c-17 -36 -44 -80
-60 -99 -21 -25 -611 -505 -790 -642 -6 -5 -191 -62 -411 -128 -221 -66 -410
-124 -421 -130 -11 -6 -111 -99 -223 -207 -202 -194 -242 -224 -296 -224 -44
1 -108 34 -134 71 l-24 34 -5 997 -5 996 -30 43 c-38 54 -103 89 -165 89 -30
0 -63 -8 -91 -23z"/>
</g>
</svg>

