<?xml version="1.0" standalone="no"?>
<!DOCTYPE svg PUBLIC "-//W3C//DTD SVG 20010904//EN"
 "http://www.w3.org/TR/2001/REC-SVG-20010904/DTD/svg10.dtd">
<svg version="1.0" xmlns="http://www.w3.org/2000/svg"
 width="545.000000pt" height="466.000000pt" viewBox="0 0 545.000000 466.000000"
 preserveAspectRatio="xMidYMid meet">

<g transform="translate(0.000000,466.000000) scale(0.100000,-0.100000)"
fill="#000000" stroke="none">
<path d="M3034 3938 c-73 -76 -186 -224 -272 -358 -93 -145 -258 -479 -452
-915 -83 -187 -153 -341 -155 -343 -2 -2 -86 -24 -187 -48 -709 -168 -1226
-363 -1401 -526 -28 -26 -52 -46 -53 -45 -6 6 -35 234 -49 377 -8 85 -21 299
-30 475 -19 375 -20 386 -56 396 -55 14 -54 22 -54 -398 1 -411 5 -474 51
-683 76 -343 186 -561 374 -744 99 -96 173 -133 285 -142 71 -6 90 -13 167
-56 307 -172 542 -254 878 -304 160 -24 426 -25 500 -2 168 53 335 210 497
468 217 346 549 991 688 1339 30 76 55 142 55 148 0 5 60 22 133 37 72 15 364
74 647 132 283 57 493 101 465 98 -55 -6 -491 -75 -625 -99 -357 -64 -595
-103 -602 -99 -4 3 -8 13 -8 23 0 24 -20 41 -47 41 -21 0 -36 -13 -90 -77 -15
-18 -50 -28 -218 -58 -110 -19 -210 -37 -222 -40 -13 -3 -23 -1 -23 4 0 5 30
62 67 127 178 319 214 444 125 444 -46 0 -149 -124 -380 -461 l-122 -176 -283
-56 c-157 -32 -287 -57 -290 -57 -12 0 60 186 144 370 46 102 176 367 288 590
228 453 314 635 309 656 -2 10 -21 -3 -54 -38z m606 -1393 c0 -16 -313 -616
-364 -699 -71 -114 -166 -227 -289 -342 -143 -134 -187 -146 -187 -50 0 101
80 409 146 561 34 77 193 379 224 424 13 18 50 28 230 65 229 47 240 49 240
41z m-780 -161 c0 -12 -397 -594 -490 -719 -105 -140 -161 -198 -185 -189 -25
10 -29 74 -12 194 22 151 127 580 148 604 7 8 484 113 522 115 9 1 17 -2 17
-5z m51 -277 c-81 -216 -124 -352 -151 -475 -21 -95 -26 -222 -10 -253 29 -53
152 -71 211 -30 40 27 127 134 259 318 52 73 96 131 97 129 7 -7 -153 -369
-242 -551 -218 -444 -318 -528 -678 -571 -125 -15 -164 -16 -260 -7 -189 20
-398 91 -710 241 l-178 86 70 32 c96 44 151 84 255 184 108 104 181 197 288
372 79 129 240 418 328 586 23 45 44 81 45 80 2 -2 -10 -52 -26 -113 -79 -300
-126 -613 -101 -677 7 -17 23 -30 47 -38 69 -23 125 26 382 336 87 105 220
270 297 368 76 97 140 175 142 173 2 -2 -27 -87 -65 -190z m-801 117 c0 -12
-134 -294 -192 -404 -73 -137 -178 -305 -245 -392 -26 -35 -95 -110 -153 -168
-115 -115 -196 -167 -309 -196 l-62 -15 -107 59 c-384 213 -517 357 -476 518
23 93 118 154 454 290 258 104 478 174 800 252 239 59 290 69 290 56z m-1150
-1160 c0 -13 -102 52 -132 83 -28 30 -21 26 50 -22 45 -31 82 -59 82 -61z"/>
<path d="M5128 2853 c7 -3 16 -2 19 1 4 3 -2 6 -13 5 -11 0 -14 -3 -6 -6z"/>
</g>
</svg>
